# xmcd
#
# Track frame offsets: 
#        150
#        19360
#        33890
#        50276
#        69098
#        90091
#        110073
#        124825
#        146392
#        174110
#
# Disc length: 2631 seconds
#
# Revision: 1
# Processed by: cddbd v1.5.2PL0 Copyright (c) Steve Scherf et al.
# Submitted via: ExactAudioCopyFreeDBPlugin 1.0
#
DISCID=730a450a
DTITLE=Dirty Bourbon River Show - Volume Four
DYEAR=2013
DGENRE=New Orleans
TTITLE0=Ballad of the Oompa Soca Man and the Orangutan Factory
TTITLE1=Mama, I've Been Abducted by Creatures of an Unholy Sound!
TTITLE2=Dear Grandma
TTITLE3=Ode to Sophia Loren
TTITLE4=Chromatic Circus Fantasy (Brass Redux)
TTITLE5=I Need Your Love
TTITLE6=Honey, You Ain't Gonna Be The One I Love
TTITLE7=Jewish Girls Who Went To Art School Know All The Angles
TTITLE8=Stomp For Mr. Mustachio (Mr. Mustachio's Stomp)
TTITLE9=Return of the Oompa Soca Man and the Orangutan Factory
EXTD=
EXTT0=
EXTT1=
EXTT2=
EXTT3=
EXTT4=
EXTT5=
EXTT6=
EXTT7=
EXTT8=
EXTT9=
PLAYORDER=
